<?xml version="1.0" encoding="UTF-8"?>
<svg id="Layer_1" data-name="Layer 1" xmlns="http://www.w3.org/2000/svg" viewBox="0 0 1350 1080">
  <defs>
    <style>
      .cls-1 {
        fill: #0092ff;
        stroke-width: 0px;
      }
    </style>
  </defs>
  <path class="cls-1" d="M441.73,629.72h-31.72v-149h31.72v149Z"/>
  <path class="cls-1" d="M556.1,629.72h-30.16v-11.84c-7.6,10.72-15.41,14.74-28.59,14.74-11.17,0-21.44-4.02-28.59-11.17-7.37-7.37-10.28-16.53-10.28-31.94v-67.69h31.72v60.76c0,10.5.45,13.18,3.35,16.98,2.9,4.02,8.04,6.25,13.85,6.25s10.72-2.23,13.63-6.25c2.9-3.8,3.35-6.25,3.35-16.98v-60.76h31.72v107.89Z"/>
  <path class="cls-1" d="M631.82,554.21c-1.34-8.04-7.82-12.29-18.32-12.29-9.16,0-15.19,3.57-15.19,8.94,0,4.02,3.13,6.03,13.18,8.27l19.88,4.24c13.18,2.68,19.88,5.58,24.57,10.5,5.14,4.91,8.04,12.96,8.04,21.67,0,22.79-18.54,37.08-48.47,37.08s-48.47-14.07-50.26-37.98h29.71c1.79,10.28,8.49,14.97,21.22,14.97,10.05,0,16.53-4.02,16.53-10.5,0-5.14-3.57-7.82-12.06-9.83l-19.66-4.47c-23.68-5.14-32.84-13.85-32.84-31.05,0-21.67,17.2-34.85,46.02-34.85s44.45,12.51,47.36,35.29h-29.71Z"/>
  <path class="cls-1" d="M734.57,554.21c-1.34-8.04-7.82-12.29-18.32-12.29-9.16,0-15.19,3.57-15.19,8.94,0,4.02,3.13,6.03,13.18,8.27l19.88,4.24c13.18,2.68,19.88,5.58,24.57,10.5,5.14,4.91,8.04,12.96,8.04,21.67,0,22.79-18.54,37.08-48.47,37.08s-48.47-14.07-50.26-37.98h29.71c1.79,10.28,8.49,14.97,21.22,14.97,10.05,0,16.53-4.02,16.53-10.5,0-5.14-3.57-7.82-12.06-9.83l-19.66-4.47c-23.68-5.14-32.84-13.85-32.84-31.05,0-21.67,17.2-34.85,46.02-34.85s44.45,12.51,47.36,35.29h-29.71Z"/>
  <path class="cls-1" d="M808.74,506.86h-31.72v-26.14h31.72v26.14ZM808.74,629.72h-31.72v-107.89h31.72v107.89Z"/>
  <path class="cls-1" d="M825.49,480.72h31.72v48.7c10.28-7.6,18.76-10.5,29.71-10.5,27.48,0,46.02,22.34,46.02,55.4s-19.88,58.3-47.58,58.3c-13.4,0-21-4.02-29.49-15.19v12.29h-30.38v-149ZM855.87,575.66c0,18.76,9.16,31.27,23.01,31.27s22.79-12.06,22.79-30.83-8.71-31.5-22.79-31.5-23.01,12.51-23.01,31.05Z"/>
  <path class="cls-1" d="M976.04,629.72h-31.72v-149h31.72v149Z"/>
  <path class="cls-1" d="M1019.38,585.04c2.01,14.74,10.72,22.79,24.35,22.79,8.49,0,14.52-2.9,18.76-9.61h32.17c-6.03,21-26.14,34.4-51.82,34.4-33.28,0-55.4-22.79-55.4-56.74s22.56-56.96,55.18-56.96c22.79,0,39.99,11.39,48.03,31.72,3.8,9.38,5.36,19.43,5.36,34.4h-76.62ZM1063.39,562.7c-1.34-12.73-8.71-19.66-21-19.66s-20.33,6.92-22.79,19.66h43.78Z"/>
  <rect class="cls-1" x="287.15" y="596.21" width="33.5" height="33.5"/>
  <path class="cls-1" d="M386.33,492.11c-9.61-8.49-20.33-11.39-40.66-11.39h-25.02v29.31h-33.5v119.68h33.51v-50.71h31.5c17.2,0,28.59-4.24,37.53-13.63,8.49-8.94,12.73-20.77,12.73-34.4,0-16.08-5.81-29.71-16.08-38.87ZM347.02,550.41h-26.36v-41.1h0s26.36,0,26.36,0c13.18,0,21.22,7.6,21.22,20.55s-8.04,20.55-21.22,20.55Z"/>
  <rect class="cls-1" x="253.58" y="447.34" width="33.5" height="33.5"/>
  <rect class="cls-1" x="253.58" y="447.34" width="33.5" height="33.5"/>
</svg>