<?xml version="1.0" encoding="UTF-8"?>
<svg id="Layer_1" data-name="Layer 1" xmlns="http://www.w3.org/2000/svg" viewBox="0 0 1350 1080">
  <defs>
    <style>
      .cls-1 {
        fill: #0092ff;
      }

      .cls-1, .cls-2 {
        stroke-width: 0px;
      }

      .cls-2 {
        fill: #fff;
      }
    </style>
  </defs>
  <circle class="cls-1" cx="614.63" cy="553.16" r="386.37"/>
  <g>
    <rect class="cls-2" x="539.95" y="676.4" width="69.57" height="69.57"/>
    <path class="cls-2" d="M745.91,460.22c-19.95-17.63-42.21-23.66-84.43-23.66h-51.97v60.87h-69.57v248.54h69.58v-105.3h65.41c35.72,0,59.38-8.81,77.93-28.3,17.63-18.55,26.44-43.14,26.44-71.44,0-33.4-12.06-61.7-33.4-80.71ZM664.27,581.29h-54.74v-85.34h0s54.74-.01,54.74-.01c27.37,0,44.07,15.77,44.07,42.68s-16.7,42.68-44.07,42.68Z"/>
    <rect class="cls-2" x="470.24" y="367.24" width="69.57" height="69.57"/>
    <rect class="cls-2" x="470.24" y="367.24" width="69.57" height="69.57"/>
  </g>
</svg>